<svg width="100" height="100" viewBox="0 0 100 100" xmlns="http://www.w3.org/2000/svg">
  <!-- Soccer ball with Beitar colors -->
  <circle cx="50" cy="50" r="45" fill="#FFFFFF" stroke="#000000" stroke-width="2"/>
  
  <!-- Black pentagons -->
  <polygon points="50,15 60,20 58,32 42,32 40,20" fill="#000000"/>
  <polygon points="30,35 40,28 48,38 42,48 28,45" fill="#000000"/>
  <polygon points="70,35 72,45 58,48 52,38 60,28" fill="#000000"/>
  <polygon points="38,62 50,55 62,62 58,74 42,74" fill="#000000"/>
  
  <!-- Yellow hexagons -->
  <polygon points="50,20 42,32 48,38 52,38 58,32" fill="#FFD700" stroke="#000000" stroke-width="1"/>
  <polygon points="28,45 42,48 42,62 35,65 25,55" fill="#FFD700" stroke="#000000" stroke-width="1"/>
  <polygon points="72,45 75,55 65,65 58,62 58,48" fill="#FFD700" stroke="#000000" stroke-width="1"/>
  <polygon points="38,62 42,74 50,80 58,74 62,62 50,55" fill="#FFD700" stroke="#000000" stroke-width="1"/>
</svg>
